<?xml version="1.0" standalone="no"?><!DOCTYPE svg PUBLIC "-//W3C//DTD SVG 1.1//EN" "http://www.w3.org/Graphics/SVG/1.1/DTD/svg11.dtd"><svg t="1772634342049" class="icon" viewBox="0 0 1534 1024" version="1.1" xmlns="http://www.w3.org/2000/svg" p-id="4694" xmlns:xlink="http://www.w3.org/1999/xlink" width="299.609375" height="200"><path d="M298.303766 512.138854a469.206883 469.206883 0 1 0 938.413767 0 469.206883 469.206883 0 1 0-938.413767 0z" fill="#FFC100" p-id="4695"></path><path d="M1309.742558 505.569122v6.398739c0 280.094588-237.738314 511.861146-527.601504 511.861146a530.118402 530.118402 0 0 1-396.201858-175.183863l-7.635689 1.321946a1097.985266 1097.985266 0 0 1-140.014295 9.661607c-120.50209 0-205.19364-28.96282-231.234579-96.593065-41.951291-111.628452 111.095474-235.840391 250.10881-319.550981l0.660973-5.609771A524.444633 524.444633 0 0 1 778.899186 0.021719a518.536874 518.536874 0 0 1 335.440333 119.115147c1.279948 1.022958 2.409902 2.131913 3.68985 3.155872 169.255104-28.919822 367.580024-35.254564 409.809304 77.333849 39.242401 103.118799-94.353156 215.792208-218.096115 305.943535z m-527.601504 424.972686a425.84765 425.84765 0 0 0 424.674698-361.075289 2755.777724 2755.777724 0 0 1-346.508883 155.030683 2719.265211 2719.265211 0 0 1-355.63751 104.099759 426.999603 426.999603 0 0 0 277.471695 101.945847z m654.60733-695.405668c-6.525734-19.323213-74.901948-45.065164-234.603442-25.76395a714.366895 714.366895 0 0 0-42.975249-48.925007 743.45771 743.45771 0 0 1 39.733381 45.704138 500.621604 500.621604 0 0 1 91.176285 186.744392c-19.537204 12.796479-39.072408 28.96282-61.85048 41.845295a181.88159 181.88159 0 0 1-26.061938 16.102344A423.757735 423.757735 0 0 0 778.814189 99.917649c-237.738314 0-429.899485 186.723392-429.899485 415.313079a409.489317 409.489317 0 0 0 68.397214 225.367818c-35.83054 6.397739-71.66008 9.661606-104.227754 12.796479a492.346941 492.346941 0 0 1-57.904641-191.351204C127.215737 651.215188 94.947052 714.856595 101.407788 730.852943c6.398739 22.543082 84.67055 38.645426 214.939243 25.762951 29.304806-3.219869 65.134346-6.397739 104.227754-12.796479a2411.102766 2411.102766 0 0 0 403.816548-112.695408 2365.973605 2365.973605 0 0 0 374.53374-173.839918c3.241868 0 3.241868-3.219869 6.504735-3.219869 9.767602-6.399739 16.272337-9.662606 26.061938-16.103343 22.778072-16.102344 42.335275-28.983819 61.85048-41.844296 120.607086-86.931458 149.910892-144.878097 143.406158-160.980441z" fill="#2E2E2E" p-id="4696"></path></svg>